HIERARCHY
ROOT Hips
{
    OFFSET 0.0 0.0 0.0
    CHANNELS 6 Xposition Yposition Zposition Zrotation Xrotation Yrotation
    JOINT LeftHipJoint
    {
        OFFSET 0.1 0.0 0.0
        CHANNELS 3 Zrotation Xrotation Yrotation
        JOINT LeftUpLeg
        {
            OFFSET 121.19066517432563 0.0 0.0
            CHANNELS 3 Zrotation Xrotation Yrotation
            JOINT LeftLeg
            {
                OFFSET 0.0 0.0 -408.2911185623649
                CHANNELS 3 Zrotation Xrotation Yrotation
                JOINT LeftFoot
                {
                    OFFSET 0.0 0.0 -386.7523178284848
                    CHANNELS 3 Zrotation Xrotation Yrotation
                    End Site
                    {
                        OFFSET 0.0 -0.1 0.0
                    }
                }
            }
        }
    }
    JOINT LowerBack
    {
        OFFSET 0.0 0.0 0.1
        CHANNELS 3 Zrotation Xrotation Yrotation
        JOINT Spine
        {
            OFFSET 0.0 0.0 214.73903840997082
            CHANNELS 3 Zrotation Xrotation Yrotation
            JOINT Spine1
            {
                OFFSET 0.0 0.0 255.13940980904067
                CHANNELS 3 Zrotation Xrotation Yrotation
                JOINT LeftShoulder
                {
                    OFFSET 0.1 0.0 0.0
                    CHANNELS 3 Zrotation Xrotation Yrotation
                    JOINT LeftArm
                    {
                        OFFSET 143.11956245678795 0.0 0.0
                        CHANNELS 3 Zrotation Xrotation Yrotation
                        JOINT LeftForeArm
                        {
                            OFFSET 257.1108596758364 0.0 0.0
                            CHANNELS 3 Zrotation Xrotation Yrotation
                            JOINT LeftHand
                            {
                                OFFSET 241.50836837976738 0.0 0.0
                                CHANNELS 3 Zrotation Xrotation Yrotation
                                End Site
                                {
                                    OFFSET 0.1 0.0 0.0
                                }
                            }
                        }
                    }
                }
                JOINT Neck
                {
                    OFFSET 0.0 0.0 0.1
                    CHANNELS 3 Zrotation Xrotation Yrotation
                    JOINT Neck1
                    {
                        OFFSET 0.0 0.0 107.17075900041323
                        CHANNELS 3 Zrotation Xrotation Yrotation
                        End Site
                        {
                            OFFSET 0.0 0.0 115.16231275564213
                        }
                    }
                }
                JOINT RightShoulder
                {
                    OFFSET -0.1 0.0 0.0
                    CHANNELS 3 Zrotation Xrotation Yrotation
                    JOINT RightArm
                    {
                        OFFSET -143.11956245678795 0.0 0.0
                        CHANNELS 3 Zrotation Xrotation Yrotation
                        JOINT RightForeArm
                        {
                            OFFSET -257.1108596758364 0.0 0.0
                            CHANNELS 3 Zrotation Xrotation Yrotation
                            JOINT RightHand
                            {
                                OFFSET -241.50836837976738 0.0 0.0
                                CHANNELS 3 Zrotation Xrotation Yrotation
                                End Site
                                {
                                    OFFSET -0.1 0.0 0.0
                                }
                            }
                        }
                    }
                }
            }
        }
    }
    JOINT RightHipJoint
    {
        OFFSET -0.1 0.0 0.0
        CHANNELS 3 Zrotation Xrotation Yrotation
        JOINT RightUpLeg
        {
            OFFSET -121.19066517432563 0.0 0.0
            CHANNELS 3 Zrotation Xrotation Yrotation
            JOINT RightLeg
            {
                OFFSET 0.0 0.0 -408.2911185623649
                CHANNELS 3 Zrotation Xrotation Yrotation
                JOINT RightFoot
                {
                    OFFSET 0.0 0.0 -386.7523178284848
                    CHANNELS 3 Zrotation Xrotation Yrotation
                    End Site
                    {
                        OFFSET 0.0 -0.1 0.0
                    }
                }
            }
        }
    }
}
MOTION
Frames: 8
Frame Time: 0.03333333333333333
0.0 0.0 808.5597329188424 23.825159320165767 -2.615034125227215 4.663729842363402 -8.620910738379216e-35 -9.93923337957349e-17 -9.93923337957349e-17 -0.7080055320149613 -7.630881295717838 -0.3556250007558891 1.8662363565366409 20.53135276091865 -1.798247489267751 0.0 0.0 0.0 -8.620910738379216e-35 -9.93923337957349e-17 -9.93923337957349e-17 0.1437079437278368 1.5546396932778326 -1.457215500951968 3.096633726002765 -4.0283620855138904e-18 -1.4903406770928e-16 -2.155227684594804e-34 -9.93923337957349e-17 -2.4848083448933725e-16 -26.33463811657272 13.878799682245779 77.35387796139132 -32.15821981743603 -3.840429056907365e-15 7.581896439402105e-15 -1.5902773407317582e-15 1.0483027457869126e-31 -7.55381736847585e-15 -2.155227684594804e-34 -9.93923337957349e-17 -2.4848083448933725e-16 -1.3028174693467958 -4.615375473188335 -4.333758820796522 -2.155227684594804e-34 -9.93923337957349e-17 -2.4848083448933725e-16 31.630696016990417 12.406801534423064 -78.35113910384685 26.02669549196536 -1.4296076651317733e-14 2.2890369465514785e-14 0.0 0.0 0.0 -8.620910738379216e-35 -9.93923337957349e-17 -9.93923337957349e-17 -0.6411634115049039 -6.8891913856529685 -4.063267904278181 0.6012191665736605 25.554679557302116 0.40595879828033915 0.0 0.0 0.0
0.0 0.0 808.5597329188424 23.850232199859043 -2.7038565215892287 4.664205932449469 0.0 0.0 -9.93923337957349e-17 -0.7021400995732113 -7.526052697549494 -0.4632491133474076 1.8264537870106452 20.42875050071258 -1.6676674941341239 -6.896728590703373e-34 -1.9878466759146977e-16 -3.9756933518293955e-16 0.0 0.0 -9.93923337957349e-17 0.1494064203222117 1.6071338070488919 -1.4064676442895578 2.9562936348982203 -3.987189843635715e-16 -3.942406359353734e-17 0.0 0.0 -9.93923337957349e-17 -27.35522083821119 13.744246014989878 76.9791700432702 -33.07606595324571 -1.3547359391059823e-15 -1.0243586541658967e-15 0.0 0.0 2.782985346280577e-15 0.0 0.0 -9.93923337957349e-17 -1.2847237253552233 -4.875652430815355 -4.450432010839274 0.0 0.0 -9.93923337957349e-17 32.78607975612359 12.436830773576558 -78.41801658629495 25.995257576990902 -8.581859761826258e-15 5.24508949839202e-15 0.0 0.0 0.0 0.0 0.0 -9.93923337957349e-17 -0.6435358213886236 -6.876034198865863 -4.041658157199971 0.6295008233198053 25.684288141325673 0.3281034190316324 0.0 0.0 3.9756933518293955e-16
0.0 0.0 808.5597329188424 23.74898450344692 -2.8647795027693386 4.69451608660919 3.1805546814635168e-15 2.758691436281349e-33 9.93923337957349e-17 -0.6961430848177812 -7.288712093769252 -0.5508605454974131 1.8329919048393817 20.350448537241494 -1.672239379294582 0.0 0.0 0.0 3.1805546814635168e-15 2.758691436281349e-33 9.93923337957349e-17 0.15642959525818376 1.6430091574402697 -1.4057860108367357 2.976255937132677 -1.0324801175660282e-17 -3.9743524599422193e-16 0.0 0.0 1.4908850069360235e-16 -28.29874492534008 13.635712837464302 76.56378341115476 -34.54149934386301 -3.509284718694637e-15 5.743090329784731e-16 0.0 0.0 1.1927080055488188e-15 0.0 0.0 1.4908850069360235e-16 -1.1802972877412852 -4.937796675337029 -4.596029848012167 0.0 0.0 1.4908850069360235e-16 34.31052128393352 12.563585650658897 -78.56913033650324 25.790667583823517 6.200678193854054e-15 -1.4196134204003603e-15 0.0 0.0 0.0 3.1805546814635168e-15 2.758691436281349e-33 9.93923337957349e-17 -0.6543053419128895 -6.8269773823950795 -4.09541089595332 0.6672699442344838 25.756398377779327 0.3740518767427461 0.0 0.0 -3.975693351829396e-16
0.0 0.0 808.5597329188424 23.608101786465138 -2.960099555441186 4.6594399997976685 0.0 0.0 -9.93923337957349e-17 -0.6728156719429905 -7.051860674076198 -0.5702293955543195 1.8104649882763035 20.21666947263544 -1.619960271424726 0.0 0.0 -3.975693351829396e-16 0.0 0.0 -9.93923337957349e-17 0.15534971053108224 1.632604372557035 -1.3161566700666456 2.8206064312480676 -6.833043858514524e-16 5.139348028310746e-16 0.0 0.0 1.4908850069360235e-16 -29.169199558684866 13.513784095973184 76.16059008955013 -35.86325266479455 -9.268681184493212e-15 1.8311884580254724e-14 0.0 0.0 2.782985346280577e-15 0.0 0.0 1.4908850069360235e-16 -1.2017604164373537 -4.904562553458993 -4.827372041758435 0.0 0.0 1.4908850069360235e-16 35.47581269121028 12.85554335077849 -78.90198927295765 25.907255351472024 -5.95145808041044e-15 -1.1685500592930058e-14 6.361109362927035e-15 1.7655625192200634e-31 3.1805546814635176e-15 0.0 0.0 -9.93923337957349e-17 -0.6554871743319541 -6.8425839579934085 -4.02887790547726 0.704910207617292 25.978463233126764 0.3779844251516657 0.0 0.0 7.951386703658792e-16
0.0 0.0 808.5597329188424 23.410805692429637 -2.9696653500590053 4.656059334372848 0.0 0.0 9.93923337957349e-17 -0.659642579608337 -6.93653461138766 -0.604949869265489 1.7771212250658843 20.07335379184447 -1.5826600597871519 -1.1034765745125397e-32 -1.5902773407317584e-15 -7.951386703658792e-16 0.0 0.0 9.93923337957349e-17 0.1511907967565513 1.5937619234105196 -1.2154555170872305 2.5524108193755564 -2.009490384932357e-16 -9.494031817651546e-17 0.0 0.0 -9.93923337957349e-17 -29.62731007339442 13.25824681974024 75.7914794857871 -37.36029967779774 -1.506682911477981e-14 2.4703072087688898e-14 0.0 0.0 -1.5902773407317584e-15 0.0 0.0 -9.93923337957349e-17 -1.1132204197947486 -4.94403453573336 -5.140938107900802 0.0 0.0 -9.93923337957349e-17 35.968916301272515 13.148442001471796 -79.26864647189558 26.141047045324967 0.0 0.0 6.3611093629270335e-15 0.0 0.0 0.0 0.0 9.93923337957349e-17 -0.6643970799166151 -6.955528684015349 -4.028364965259365 0.7033524917068676 26.159417668183902 0.3882872075052215 0.0 0.0 0.0
0.0 0.0 808.5597329188424 23.211463203719248 -2.9833284308590455 4.608916888691 0.0 0.0 -7.951386703658792e-16 -0.6426699706342203 -6.8151528426770644 -0.5615034269710862 1.7598108318870942 19.900787713665434 -1.571540492532805 0.0 0.0 -3.975693351829396e-16 0.0 0.0 -7.951386703658792e-16 0.14833277886023286 1.5764362871301474 -1.0582183322138639 2.23045940568005 3.9555953220799855e-16 -1.0711147825773259e-16 5.17254644302753e-34 3.975693351829396e-16 -1.4908850069360235e-16 -29.771673017899875 12.714845393092538 75.17170048325707 -39.22234131084963 -1.0068285789282289e-14 1.8781372561968645e-14 0.0 0.0 1.5902773407317584e-15 5.17254644302753e-34 3.975693351829396e-16 -1.4908850069360235e-16 -0.9896237520455136 -4.817577138432756 -5.43659805840328 5.17254644302753e-34 3.975693351829396e-16 -1.4908850069360235e-16 36.96554037267944 13.480652263797653 -79.52089308032683 26.542211732649232 -4.555866710893821e-15 -5.461109678578794e-15 0.0 0.0 0.0 0.0 0.0 -7.951386703658792e-16 -0.6652667393851445 -7.020675688419595 -3.954201599037533 0.7227467550085658 26.292153967391013 0.3917937436411919 0.0 0.0 -3.975693351829396e-16
0.0 0.0 808.5597329188424 23.074710020492773 -3.103341506086528 4.499749948619933 8.620910738379216e-35 -9.93923337957349e-17 9.93923337957349e-17 -0.6066862781571022 -6.620245346890416 -0.45918748315862995 1.7406596073038951 19.88820865811194 -1.571789156333871 0.0 0.0 0.0 8.620910738379216e-35 -9.93923337957349e-17 9.93923337957349e-17 0.14574788922159254 1.5931894349939784 -0.8430938829398891 1.808770228666423 7.903332390441926e-16 -3.1069020024680306e-16 0.0 0.0 1.987846675914698e-16 -29.898985453724528 12.05715875054637 74.2837142980348 -41.52943734893708 7.62533399178457e-15 -1.1139975240638712e-14 0.0 0.0 0.0 0.0 0.0 1.987846675914698e-16 -0.8114537071913269 -4.789455266841276 -5.6801735001034475 0.0 0.0 1.987846675914698e-16 38.099780997513065 13.879319577499508 -79.93658689647977 26.774085370410354 -1.0167372439510391e-14 1.2227949121613639e-14 6.361109362927035e-15 6.361109362927035e-15 -3.531125038440127e-31 8.620910738379216e-35 -9.93923337957349e-17 9.93923337957349e-17 -0.6311369793739598 -6.851250701621168 -3.845246362785529 0.7004538925239009 26.249647605837406 0.4215746531749864 0.0 0.0 7.951386703658792e-16
0.0 0.0 808.5597329188424 22.77997708506223 -3.253434426979821 4.447164232444355 3.620782510119271e-33 6.957463365701443e-16 -5.963540027744094e-16 -0.5776461261370143 -6.375881304345 -0.3933037201622459 1.7375409125595094 19.832776318902955 -1.6268954972009146 0.0 0.0 -3.975693351829396e-16 3.620782510119271e-33 6.957463365701443e-16 -5.963540027744094e-16 0.14368793944423464 1.5880975026067519 -0.7251634441340807 1.3360559519439914 -3.871129548860203e-16 8.991054742596134e-16 0.0 0.0 0.0 -30.056202551364382 11.232865269211338 73.34445125984907 -43.439601323927405 8.104217118954685e-15 -1.1750011868544294e-14 0.0 0.0 7.951386703658792e-16 0.0 0.0 0.0 -0.5542217113273503 -4.723165580793749 -5.773433082554121 0.0 0.0 0.0 39.10189527432878 14.290046096397164 -80.28343104207008 26.83625401761052 -3.093733522025067e-15 7.380656992963889e-16 0.0 0.0 0.0 3.620782510119271e-33 6.957463365701443e-16 -5.963540027744094e-16 -0.6034024422961175 -6.6244472802467325 -3.8033249735103625 0.6879307099668814 26.1284205030395 0.43746815193381944 3.1805546814635168e-15 -9.93923337957349e-17 -3.975693351829396e-16
